HIERARCHY
ROOT hip
{
  OFFSET 0 0 0
  CHANNELS 6 Xposition Yposition Zposition Zrotation Yrotation Xrotation
  JOINT abdomen
  {
    OFFSET 0 20.6881 -0.73152
    CHANNELS 3 Zrotation Xrotation Yrotation
    JOINT chest
    {
      OFFSET 0 11.7043 -0.48768
      CHANNELS 3 Zrotation Xrotation Yrotation
      JOINT neck
      {
        OFFSET 0 22.1894 -2.19456
        CHANNELS 3 Zrotation Xrotation Yrotation
        JOINT head
        {
          OFFSET -0.24384 7.07133 1.2192
          CHANNELS 3 Zrotation Xrotation Yrotation
          JOINT leftEye
          {
            OFFSET 4.14528 8.04674 8.04672
            CHANNELS 3 Zrotation Xrotation Yrotation
            End Site
            {
              OFFSET 1 0 0
            }
          }
          JOINT rightEye
          {
            OFFSET -3.6576 8.04674 8.04672
            CHANNELS 3 Zrotation Xrotation Yrotation
            End Site
            {
              OFFSET 1 0 0
            }
          }
        }
      }
      JOINT rCollar
      {
        OFFSET -2.68224 19.2634 -4.8768
        CHANNELS 3 Zrotation Xrotation Yrotation
        JOINT rShldr
        {
          OFFSET -8.77824 -1.95073 1.46304
          CHANNELS 3 Zrotation Xrotation Yrotation
          JOINT rForeArm
          {
            OFFSET -28.1742 -1.7115 0.48768
            CHANNELS 3 Zrotation Xrotation Yrotation
            JOINT rHand
            {
              OFFSET -22.5879 0.773209 7.07136
              CHANNELS 3 Zrotation Xrotation Yrotation
              JOINT rThumb1
              {
                OFFSET -1.2192 -0.487915 3.41376
                CHANNELS 3 Zrotation Xrotation Yrotation
                JOINT rThumb2
                {
                  OFFSET -3.37035 -0.52449 3.41376
                  CHANNELS 3 Zrotation Xrotation Yrotation
                  End Site
                  {
                    OFFSET -1.78271 -1.18214 1.43049
                  }
                }
              }
              JOINT rIndex1
              {
                OFFSET -7.75947 0.938293 5.60832
                CHANNELS 3 Zrotation Xrotation Yrotation
                JOINT rIndex2
                {
                  OFFSET -2.54057 -0.884171 1.56538
                  CHANNELS 3 Zrotation Xrotation Yrotation
                  End Site
                  {
                    OFFSET -1.62519 -0.234802 1.16502
                  }
                }
              }
              JOINT rMid1
              {
                OFFSET -8.24714 1.18213 3.41376
                CHANNELS 3 Zrotation Xrotation Yrotation
                JOINT rMid2
                {
                  OFFSET -3.10165 -0.590103 1.0647
                  CHANNELS 3 Zrotation Xrotation Yrotation
                  End Site
                  {
                    OFFSET -2.48547 -0.328903 0.83742
                  }
                }
              }
              JOINT rRing1
              {
                OFFSET -8.82822 0.546677 1.51678
                CHANNELS 3 Zrotation Xrotation Yrotation
                JOINT rRing2
                {
                  OFFSET -2.60934 -0.819778 -0.0198488
                  CHANNELS 3 Zrotation Xrotation Yrotation
                  End Site
                  {
                    OFFSET -2.33842 -0.294052 0.168128
                  }
                }
              }
              JOINT rPinky1
              {
                OFFSET -8.27202 -0.0477905 -0.4584
                CHANNELS 3 Zrotation Xrotation Yrotation
                JOINT rPinky2
                {
                  OFFSET -1.82734 -0.647385 -0.700984
                  CHANNELS 3 Zrotation Xrotation Yrotation
                  End Site
                  {
                    OFFSET -1.69225 -0.51767 -0.607171
                  }
                }
              }
            }
          }
        }
      }
      JOINT lCollar
      {
        OFFSET 2.68224 19.2634 -4.8768
        CHANNELS 3 Zrotation Xrotation Yrotation
        JOINT lShldr
        {
          OFFSET 8.77824 -1.95073 1.46304
          CHANNELS 3 Zrotation Xrotation Yrotation
          JOINT lForeArm
          {
            OFFSET 28.1742 -1.7115 0.48768
            CHANNELS 3 Zrotation Xrotation Yrotation
            JOINT lHand
            {
              OFFSET 22.5879 0.773209 7.07136
              CHANNELS 3 Zrotation Xrotation Yrotation
              JOINT lThumb1
              {
                OFFSET 1.2192 -0.487915 3.41376
                CHANNELS 3 Zrotation Xrotation Yrotation
                JOINT lThumb2
                {
                  OFFSET 3.37035 -0.52449 3.41376
                  CHANNELS 3 Zrotation Xrotation Yrotation
                  End Site
                  {
                    OFFSET 1.78271 -1.18214 1.43049
                  }
                }
              }
              JOINT lIndex1
              {
                OFFSET 7.75947 0.938293 5.60832
                CHANNELS 3 Zrotation Xrotation Yrotation
                JOINT lIndex2
                {
                  OFFSET 2.54057 -0.884171 1.56538
                  CHANNELS 3 Zrotation Xrotation Yrotation
                  End Site
                  {
                    OFFSET 1.62519 -0.234802 1.16502
                  }
                }
              }
              JOINT lMid1
              {
                OFFSET 8.24714 1.18213 3.41376
                CHANNELS 3 Zrotation Xrotation Yrotation
                JOINT lMid2
                {
                  OFFSET 3.10165 -0.590103 1.0647
                  CHANNELS 3 Zrotation Xrotation Yrotation
                  End Site
                  {
                    OFFSET 2.48547 -0.328903 0.83742
                  }
                }
              }
              JOINT lRing1
              {
                OFFSET 8.82822 0.546677 1.51678
                CHANNELS 3 Zrotation Xrotation Yrotation
                JOINT lRing2
                {
                  OFFSET 2.60934 -0.819778 -0.0198488
                  CHANNELS 3 Zrotation Xrotation Yrotation
                  End Site
                  {
                    OFFSET 2.33842 -0.294052 0.168128
                  }
                }
              }
              JOINT lPinky1
              {
                OFFSET 8.27202 -0.0477905 -0.4584
                CHANNELS 3 Zrotation Xrotation Yrotation
                JOINT lPinky2
                {
                  OFFSET 1.82734 -0.647385 -0.700984
                  CHANNELS 3 Zrotation Xrotation Yrotation
                  End Site
                  {
                    OFFSET 1.69225 -0.51767 -0.607171
                  }
                }
              }
            }
          }
        }
      }
    }
  }
  JOINT rButtock
  {
    OFFSET -8.77824 4.35084 1.2192
    CHANNELS 3 Zrotation Xrotation Yrotation
    JOINT rThigh
    {
      OFFSET 0 -1.70687 -2.19456
      CHANNELS 3 Zrotation Xrotation Yrotation
      JOINT rShin
      {
        OFFSET 0 -36.8199 0.73152
        CHANNELS 3 Zrotation Xrotation Yrotation
        JOINT rFoot
        {
          OFFSET 0.73152 -45.1104 -5.12064
          CHANNELS 3 Zrotation Xrotation Yrotation
          End Site
          {
            OFFSET -1.1221 -3.69964 12.103
          }
        }
      }
    }
  }
  JOINT lButtock
  {
    OFFSET 8.77824 4.35084 1.2192
    CHANNELS 3 Zrotation Xrotation Yrotation
    JOINT lThigh
    {
      OFFSET 0 -1.70687 -2.19456
      CHANNELS 3 Zrotation Xrotation Yrotation
      JOINT lShin
      {
        OFFSET 0 -36.8199 0.73152
        CHANNELS 3 Zrotation Xrotation Yrotation
        JOINT lFoot
        {
          OFFSET -0.73152 -45.1104 -5.12064
          CHANNELS 3 Zrotation Xrotation Yrotation
          End Site
          {
            OFFSET 1.1221 -3.69964 12.103
          }
        }
      }
    }
  }
}
MOTION
Frames:	8
Frame Time:	0.00833333
77.2338 80.7082 -48.9722 -0.0 -0.0 0.0 0.0 0.0 0.0 0.0 -0.0 -0.0 0.245875 19.608241 -158.802917 7.579128 18.139248 157.548848 -0.0 -0.0 0.0 -0.0 -0.0 0.0 -80.1661 68.371792 83.260848 -68.490558 86.569819 87.996719 -174.16588 1.130461 178.296286 -1.190542 3.812261 -0.09089 -153.679742 8.238919 87.337247 156.184139 -34.962133 87.727489 -19.170572 24.114561 13.380841 -174.620764 -16.462185 115.326994 68.983989 -80.15399 40.578188 -38.03089 52.960915 33.074804 -138.588735 43.491441 163.724255 -127.498692 -56.247817 -152.03548 -152.200278 37.330087 -147.582714 -124.690631 -28.759142 -123.512722 80.1661 68.371792 -83.260848 156.024567 0.011119 -179.053862 -164.572824 -77.569918 -126.712099 -172.186651 -12.084603 -144.405216 78.030619 38.689342 -42.41267 -104.045842 -54.345153 -41.345287 27.421557 30.63922 -20.098782 13.384838 21.934793 1.962359 166.119123 -24.039701 -145.07787 5.172841 26.381742 -7.59861 145.111317 -0.66827 178.918345 -22.371711 34.866194 4.904343 134.875415 -13.759006 132.28595 -13.272619 25.828344 -5.46696 -0.0 0.0 0.0 -0.0 -0.0 -0.0 2.512346 0.127625 22.075435 96.382494 -47.046576 -8.794343 -0.0 0.0 0.0 -0.0 -0.0 -0.0 -2.512346 0.127625 -22.075435 -96.382494 -47.046576 8.794343
77.073 80.5092 -48.7665 -0.0 -0.0 0.0 0.0 0.0 0.0 0.0 -0.0 -0.0 0.245875 19.608241 -158.802917 7.579128 18.139248 157.548848 -0.0 -0.0 0.0 -0.0 -0.0 0.0 -80.1661 68.371792 83.260848 -72.229525 86.566453 91.742579 -62.243933 -75.456927 -88.527754 98.114212 -70.473273 82.232586 176.505527 -20.695006 88.628526 -170.662782 -7.043309 96.227017 1.506441 -2.484713 -0.828391 -5.588864 7.792744 2.041727 -36.036059 51.723116 29.832321 -164.586543 -4.869259 145.948015 0.004875 1.770451 0.556181 -84.179386 79.101475 87.102713 -153.998435 44.448064 -148.80351 -10.232706 -25.136706 -14.689282 13.015985 41.250126 -14.798846 -8.186856 -0.061689 3.946023 178.441391 61.218612 -146.578035 -170.822911 -16.05161 -143.936846 1.583584 1.556255 -0.264275 124.166837 -17.352568 -110.893889 -10.211155 -18.05077 4.56389 -6.868639 -5.299515 -2.542218 164.637861 -19.283648 -144.733631 133.962176 44.477358 -124.955035 74.840941 72.961123 -92.827929 -91.794981 86.352627 82.99539 1.203484 -3.047547 1.116064 -12.72972 44.400786 -8.939536 -0.0 0.0 0.0 -0.0 -0.0 -0.0 2.512346 0.127625 22.075435 96.382494 -47.046576 -8.794343 -0.0 0.0 0.0 -0.0 -0.0 -0.0 -2.512346 0.127625 -22.075435 -96.382494 -47.046576 8.794343
77.0252 80.3366 -48.6154 -0.0 -0.0 0.0 0.0 0.0 0.0 0.0 -0.0 -0.0 0.245875 19.608241 -158.802917 7.579128 18.139248 157.548848 -0.0 0.0 -0.0 -0.0 0.0 -0.0 -80.1661 68.371792 83.260848 -72.229525 86.566453 91.742579 -62.243933 -75.456927 -88.527754 98.114212 -70.473273 82.232586 8.270536 -8.263169 -0.681995 -38.282123 28.611917 30.263768 10.281995 -18.182542 -4.585706 4.501692 -2.277518 2.855033 -36.036059 51.723116 29.832321 -12.773103 37.026303 7.485136 -66.264309 72.868403 83.836867 20.920448 70.571014 -15.487071 -152.695872 39.284564 -147.93469 69.845319 82.411822 -30.561439 13.015985 41.250126 -14.798846 -8.186856 -0.061689 3.946023 178.441391 61.218612 -146.578035 -170.822911 -16.05161 -143.936846 169.984579 -7.667226 -89.939596 155.445922 1.442309 -80.562901 95.098932 39.750292 -80.124695 146.691249 25.665891 -117.898389 169.08961 -33.247392 -145.374931 -13.071554 -19.746484 -0.3194 145.121957 1.974539 179.748654 68.33515 -77.565779 100.051614 145.499137 13.103982 142.110579 144.816727 10.991394 141.545619 -0.0 0.0 0.0 -0.0 -0.0 -0.0 2.512346 0.127625 22.075435 96.382494 -47.046576 -8.794343 -0.0 0.0 0.0 -0.0 -0.0 -0.0 -2.512346 0.127625 -22.075435 -96.382494 -47.046576 8.794343
76.9449 80.2398 -48.3875 -0.0 -0.0 0.0 0.0 0.0 0.0 0.0 -0.0 -0.0 0.245875 19.608241 -158.802917 7.579128 18.139248 157.548848 -0.0 0.0 -0.0 -0.0 0.0 -0.0 -80.1661 68.371792 83.260848 -72.229525 86.566453 91.742579 -62.243933 -75.456927 -88.527754 98.114212 -70.473273 82.232586 -0.441471 0.435329 0.069465 10.722023 -15.223622 -8.01485 -46.208543 39.652969 36.318179 -6.310281 15.734212 -7.505533 -0.057679 0.167876 0.032027 1.498341 -4.514256 -0.547421 -145.12196 1.973689 -179.748387 19.623069 -7.708443 -10.398331 17.317032 60.660283 12.795762 -149.751119 12.050234 -140.930245 13.015985 41.250126 -14.798846 -8.186856 -0.061689 3.946023 178.441391 61.218612 -146.578035 -170.822911 -16.05161 -143.936846 -6.463714 -6.452652 0.634888 131.924088 -26.7433 -118.149288 153.514553 -21.181485 -121.760193 -20.6725 3.199813 9.959737 -0.541241 -1.589941 0.294737 3.437485 9.66194 -1.670424 -0.004873 1.771387 -0.556475 0.108802 -0.408437 0.387257 132.781452 -17.595787 130.285447 157.078708 54.520385 149.391724 -0.0 0.0 0.0 -0.0 -0.0 -0.0 2.512346 0.127625 22.075435 96.382494 -47.046576 -8.794343 -0.0 0.0 0.0 -0.0 -0.0 -0.0 -2.512346 0.127625 -22.075435 -96.382494 -47.046576 8.794343
76.8733 80.1665 -48.1861 -0.0 -0.0 0.0 0.0 0.0 0.0 0.0 -0.0 -0.0 0.245875 19.608241 -158.802917 7.579128 18.139248 157.548848 -0.0 -0.0 0.0 -0.0 -0.0 0.0 -80.1661 68.371792 83.260848 -68.490558 86.569819 87.996719 -174.16588 1.130461 178.296286 -1.190542 3.812261 -0.09089 -0.441471 0.435329 0.069465 -124.593112 -17.385215 111.451589 37.215945 -57.917763 -0.643014 97.423166 -55.371973 43.528708 -89.835461 60.702148 81.262754 -7.093845 30.090604 4.047899 -145.121673 2.056812 -179.774511 -142.114965 -24.461563 -175.017438 -112.782157 -40.02393 -110.810899 -161.937697 71.210168 -151.04912 80.1661 68.371792 -83.260848 156.024567 0.011119 -179.053862 -164.572824 -77.569918 -126.712099 -172.186651 -12.084603 -144.405216 0.491581 0.484673 -0.077556 126.023418 -19.828133 -112.415149 33.797169 34.48579 -25.494234 -178.845753 -31.71097 -117.072587 167.375306 -28.008469 -145.269175 33.737809 54.525942 -31.543709 -0.004873 1.771387 -0.556475 -0.820032 -21.739752 2.915261 -13.107519 44.816336 -10.83651 135.594359 -20.344309 129.919606 -0.0 0.0 0.0 -0.0 -0.0 -0.0 2.512346 0.127625 22.075435 96.382494 -47.046576 -8.794343 -0.0 0.0 0.0 -0.0 -0.0 -0.0 -2.512346 0.127625 -22.075435 -96.382494 -47.046576 8.794343
76.742 80.1145 -47.972 -0.0 -0.0 0.0 0.0 0.0 0.0 0.0 -0.0 -0.0 0.245875 19.608241 -158.802917 7.579128 18.139248 157.548848 -0.0 -0.0 0.0 -0.0 -0.0 0.0 -80.1661 68.371792 83.260848 -72.229525 86.566453 91.742579 -62.243933 -75.456927 -88.527754 98.114212 -70.473273 82.232586 -103.199394 36.330979 60.111426 20.422575 -30.772664 24.454706 1.506441 -2.484713 -0.828391 -5.588864 7.792744 2.041727 -36.036059 51.723116 29.832321 -164.586543 -4.869259 145.948015 0.004875 1.770451 0.556181 -84.179386 79.101475 87.102713 -153.998435 44.448064 -148.80351 -3.03774 -13.964905 -8.489673 13.015985 41.250126 -14.798846 -8.186856 -0.061689 3.946023 178.441391 61.218612 -146.578035 -170.822911 -16.05161 -143.936846 68.482456 37.953515 -35.65979 -59.545854 -44.185378 -19.779163 -10.211155 -18.05077 4.56389 -6.868639 -5.299515 -2.542218 164.637861 -19.283648 -144.733631 133.962176 44.477358 -124.955035 74.840941 72.961123 -92.827929 -91.794981 86.352627 82.99539 1.203484 -3.047547 1.116064 26.198613 -41.141649 24.433403 -0.0 0.0 0.0 -0.0 -0.0 -0.0 2.512346 0.127625 22.075435 96.382494 -47.046576 -8.794343 -0.0 0.0 0.0 -0.0 -0.0 -0.0 -2.512346 0.127625 -22.075435 -96.382494 -47.046576 8.794343
76.5525 80.1027 -47.7152 -0.0 -0.0 0.0 0.0 0.0 0.0 0.0 -0.0 -0.0 0.245875 19.608241 -158.802917 7.579128 18.139248 157.548848 -0.0 0.0 -0.0 -0.0 0.0 -0.0 -80.1661 68.371792 83.260848 -72.229525 86.566453 91.742579 -62.243933 -75.456927 -88.527754 98.114212 -70.473273 82.232586 -78.030619 38.689342 42.41267 -153.611088 -34.808512 82.87024 10.281995 -18.182542 -4.585706 4.501692 -2.277518 2.855033 -36.036059 51.723116 29.832321 -12.773103 37.026303 7.485136 -66.264309 72.868403 83.836867 20.920448 70.571014 -15.487071 -152.695872 39.284564 -147.93469 69.845319 82.411822 -30.561439 13.015985 41.250126 -14.798846 -8.186856 -0.061689 3.946023 178.441391 61.218612 -146.578035 -170.822911 -16.05161 -143.936846 -66.257853 -46.842795 -22.116955 78.507462 39.342629 -45.705944 95.098932 39.750292 -80.124695 146.691249 25.665891 -117.898389 169.08961 -33.247392 -145.374931 -13.071554 -19.746484 -0.3194 145.121957 1.974539 179.748654 68.33515 -77.565779 100.051614 145.499137 13.103982 142.110579 144.816727 10.991394 141.545619 -0.0 0.0 0.0 -0.0 -0.0 -0.0 2.512346 0.127625 22.075435 96.382494 -47.046576 -8.794343 -0.0 0.0 0.0 -0.0 -0.0 -0.0 -2.512346 0.127625 -22.075435 -96.382494 -47.046576 8.794343
76.3549 80.1153 -47.5114 -0.0 -0.0 0.0 0.0 0.0 0.0 0.0 -0.0 -0.0 0.245875 19.608241 -158.802917 7.579128 18.139248 157.548848 -0.0 -0.0 0.0 -0.0 -0.0 0.0 -80.1661 68.371792 83.260848 -72.229525 86.566453 91.742579 -62.243933 -75.456927 -88.527754 98.114212 -70.473273 82.232586 -103.199394 36.330979 60.111426 20.422575 -30.772664 24.454706 -10.678751 15.143673 6.94242 -10.093215 13.757863 -0.336248 -36.036059 51.723116 29.832321 -164.586543 -4.869259 145.948015 0.004875 1.770451 0.556181 -84.179386 79.101475 87.102713 -153.998435 44.448064 -148.80351 -3.03774 -13.964905 -8.489673 13.015985 41.250126 -14.798846 -8.186856 -0.061689 3.946023 178.441391 61.218612 -146.578035 -170.822911 -16.05161 -143.936846 68.482456 37.953515 -35.65979 -59.545854 -44.185378 -19.779163 -10.211155 -18.05077 4.56389 -6.868639 -5.299515 -2.542218 164.637861 -19.283648 -144.733631 133.962176 44.477358 -124.955035 74.840941 72.961123 -92.827929 -91.794981 86.352627 82.99539 1.203484 -3.047547 1.116064 26.198613 -41.141649 24.433403 -0.0 0.0 0.0 -0.0 -0.0 -0.0 2.512346 0.127625 22.075435 96.382494 -47.046576 -8.794343 -0.0 0.0 0.0 -0.0 -0.0 -0.0 -2.512346 0.127625 -22.075435 -96.382494 -47.046576 8.794343
